%FSLAX35Y35*%
%MOIN*%
%IN2 = Copper bottom L1   ( x.Bot )*%
%ADD10C,0.00591*%
%ADD11C,0.01000*%
%ADD12C,0.01024*%
%ADD13C,0.01181*%
%ADD14C,0.01600*%
%ADD15C,0.02362*%
%ADD16C,0.04000*%
%ADD17C,0.04724*%
%ADD18C,0.06000*%
%ADD19C,0.08000*%
%ADD20C,0.11811*%
%ADD21C,0.23622*%
G54D14*
X341250Y187500D02*
X305000Y187500D01*
X341250Y187500D02*
X385000Y143750D01*
X385000Y61250D01*
X381250Y57500D01*
X375000Y57500D01*
X337500Y177500D02*
X305000Y177500D01*
X337500Y177500D02*
X375000Y140000D01*
X375000Y117500D01*
X345000Y157500D02*
X305000Y157500D01*
X345000Y157500D02*
X365000Y137500D01*
X365000Y117500D01*
X305000Y147500D02*
X342500Y147500D01*
X355000Y135000D01*
X355000Y117500D01*
X157500Y190000D02*
X157500Y126250D01*
X173750Y110000D01*
X252500Y110000D01*
X272500Y90000D02*
X252500Y110000D01*
X306250Y90000D02*
X272500Y90000D01*
X306250Y90000D02*
X310000Y93750D01*
X310000Y107500D01*
X147500Y190000D02*
X147500Y126250D01*
X170000Y103750D01*
X248750Y103750D01*
X271250Y81250D02*
X248750Y103750D01*
X298750Y81250D02*
X271250Y81250D01*
X298750Y81250D02*
X300000Y82500D01*
X300000Y85000D01*
X300000Y96250D02*
X300000Y107500D01*
X365000Y25000D02*
X365000Y57500D01*
X355000Y57500D02*
X355000Y25000D01*
X345000Y25000D02*
X345000Y57500D01*
X335000Y57500D02*
X335000Y25000D01*
X325000Y25000D02*
X325000Y57500D01*
X315000Y25000D02*
X315000Y47500D01*
X312500Y50000D01*
X260000Y50000D01*
X257500Y52500D01*
X257500Y62500D01*
X260000Y65000D02*
X257500Y62500D01*
X320000Y65000D02*
X260000Y65000D01*
X320000Y65000D02*
X335000Y80000D01*
X335000Y117500D01*
X305000Y25000D02*
X305000Y42500D01*
X301250Y46250D02*
X305000Y42500D01*
X258750Y46250D02*
X301250Y46250D01*
X258750Y46250D02*
X253750Y51250D01*
X253750Y63750D02*
X253750Y51250D01*
X253750Y63750D02*
X258750Y68750D01*
X317500Y68750D01*
X325000Y76250D01*
X325000Y117500D01*
X315000Y117500D02*
X315000Y77500D01*
X311250Y73750D01*
X258750Y73750D02*
X311250Y73750D01*
X250000Y65000D02*
X258750Y73750D01*
X250000Y50000D02*
X250000Y65000D01*
X250000Y50000D02*
X257500Y42500D01*
X292500Y42500D01*
X295000Y40000D01*
X295000Y25000D01*
X285000Y25000D02*
X285000Y36250D01*
X282500Y38750D01*
X250000Y38750D01*
X245000Y43750D01*
X245000Y92500D01*
G54D16*
X235000Y117500D02*
X255000Y117500D01*
G54D17*
X235000Y117500D03*
X255000Y117500D03*
X300000Y85000D03*
X300000Y96250D03*
X245000Y92500D03*
G54D19*
X255000Y137500D03*
X265000Y137500D03*
X305000Y187500D03*
X305000Y177500D03*
X305000Y167500D03*
X305000Y157500D03*
X305000Y147500D03*
X305000Y137500D03*
X157500Y190000D03*
X147500Y190000D03*
X137500Y190000D03*
X127500Y190000D03*
X375000Y25000D03*
X375000Y15000D03*
X365000Y25000D03*
X365000Y15000D03*
X355000Y25000D03*
X355000Y15000D03*
X345000Y25000D03*
X345000Y15000D03*
X335000Y25000D03*
X335000Y15000D03*
X325000Y25000D03*
X325000Y15000D03*
X315000Y25000D03*
X315000Y15000D03*
X305000Y25000D03*
X305000Y15000D03*
X295000Y25000D03*
X295000Y15000D03*
X285000Y25000D03*
X285000Y15000D03*
X275000Y25000D03*
X275000Y15000D03*
X265000Y25000D03*
X265000Y15000D03*
X375000Y87500D03*
X375000Y97500D03*
X375000Y107500D03*
X300000Y107500D03*
X310000Y107500D03*
X375000Y117500D03*
X365000Y117500D03*
X355000Y117500D03*
X345000Y117500D03*
X335000Y117500D03*
X325000Y117500D03*
X315000Y117500D03*
X305000Y117500D03*
X295000Y117500D03*
X285000Y117500D03*
X275000Y117500D03*
X265000Y117500D03*
X375000Y57500D03*
X365000Y57500D03*
X355000Y57500D03*
X345000Y57500D03*
X335000Y57500D03*
X325000Y57500D03*
X315000Y57500D03*
X305000Y57500D03*
X295000Y57500D03*
X285000Y57500D03*
X275000Y57500D03*
X265000Y57500D03*
G54D20*
X235000Y60000D03*
X45000Y60000D03*
X235000Y140000D03*
X45000Y140000D03*
X25000Y110000D03*
X25000Y90000D03*
G54D21*
X21250Y175000D03*
X21250Y20000D03*
X375000Y178750D03*
X217500Y33750D03*
M02*
