%FSLAX35Y35*%
%MOIN*%
%IN16 = Copper top L2   ( x.Top )*%
%ADD10C,0.00591*%
%ADD11C,0.00768*%
%ADD12C,0.00787*%
%ADD13C,0.01000*%
%ADD14C,0.01024*%
%ADD15C,0.01181*%
%ADD16C,0.02400*%
%ADD17C,0.03200*%
%ADD18C,0.04000*%
%ADD19C,0.06000*%
%ADD20C,0.08000*%
%ADD21C,0.10000*%
%ADD22C,0.12000*%
%ADD23C,0.19685*%
%ADD24R,0.06500X0.08500*%
%ADD25O,0.06500X0.08500*%
G54D16*
X240000Y185000D02*
X232500Y185000D01*
X230000Y182500D01*
X230000Y137500D01*
G54D18*
X80000Y237500D02*
X80000Y192500D01*
X62500Y175000D01*
X62500Y140000D01*
X172500Y20000D02*
X172500Y42500D01*
X165000Y12500D02*
X172500Y20000D01*
X57500Y12500D02*
X165000Y12500D01*
X57500Y12500D02*
X35000Y35000D01*
X35000Y132500D01*
X42500Y140000D01*
X62500Y140000D01*
X62500Y120000D01*
X115000Y100000D02*
X62500Y100000D01*
X115000Y100000D02*
X122500Y107500D01*
X122500Y112500D01*
X122500Y155000D02*
X157342Y189842D01*
X157342Y202500D01*
X180000Y137500D02*
X180000Y152500D01*
X182500Y155000D01*
X190000Y155000D01*
X140000Y112500D02*
X122500Y112500D01*
X122500Y155000D01*
X115000Y100000D02*
X62500Y100000D01*
X115000Y100000D02*
X122500Y107500D01*
X122500Y112500D01*
X122500Y155000D02*
X157342Y189842D01*
X200000Y155000D02*
X200000Y162500D01*
X192500Y170000D01*
X152500Y170000D02*
X192500Y170000D01*
X152500Y170000D02*
X140000Y157500D01*
X140000Y150000D01*
X140000Y132500D02*
X140000Y122500D01*
X160000Y137500D02*
X160000Y145000D01*
X155000Y150000D01*
X140000Y150000D01*
X140000Y132500D01*
X152500Y57500D02*
X152500Y42500D01*
X160000Y65000D02*
X152500Y57500D01*
X160000Y65000D02*
X175000Y65000D01*
X180000Y70000D01*
X180000Y77500D01*
X162500Y42500D02*
X162500Y52500D01*
X167500Y57500D01*
X202500Y57500D01*
X210000Y65000D01*
X210000Y77500D01*
G54D20*
X172500Y42500D03*
X162500Y42500D03*
X152500Y42500D03*
X142500Y42500D03*
X210000Y42500D03*
X220000Y42500D03*
X230000Y42500D03*
X240000Y42500D03*
X157342Y202500D03*
X137657Y202500D03*
X85000Y180000D03*
X55000Y180000D03*
X185000Y127500D03*
X195000Y127500D03*
X140000Y132500D03*
X140000Y122500D03*
X140000Y112500D03*
X140000Y102500D03*
X140000Y92500D03*
X140000Y82500D03*
X260000Y137500D03*
X250000Y137500D03*
X240000Y137500D03*
X230000Y137500D03*
X220000Y137500D03*
X210000Y137500D03*
X200000Y137500D03*
X190000Y137500D03*
X180000Y137500D03*
X170000Y137500D03*
X160000Y137500D03*
X150000Y137500D03*
X260000Y77500D03*
X250000Y77500D03*
X240000Y77500D03*
X230000Y77500D03*
X220000Y77500D03*
X210000Y77500D03*
X200000Y77500D03*
X190000Y77500D03*
X180000Y77500D03*
X170000Y77500D03*
X160000Y77500D03*
X150000Y77500D03*
X190000Y155000D03*
X200000Y155000D03*
X240000Y205000D03*
X240000Y195000D03*
X240000Y185000D03*
X240000Y175000D03*
X240000Y165000D03*
X240000Y155000D03*
G54D22*
X62500Y120000D03*
X62500Y100000D03*
X62500Y80000D03*
X80000Y237500D03*
X60000Y237500D03*
G54D23*
X20000Y250000D03*
X265000Y250000D03*
X265000Y20000D03*
X20000Y20000D03*
G54D24*
X132500Y237500D03*
G54D25*
X142500Y237500D03*
X152500Y237500D03*
M02*
