%FSLAX35Y35*%
%MOIN*%
%IN2 = Copper bottom L1   ( x.Bot )*%
%ADD10C,0.00591*%
%ADD11C,0.00768*%
%ADD12C,0.01181*%
%ADD13C,0.02400*%
%ADD14C,0.03150*%
%ADD15C,0.03200*%
%ADD16C,0.04000*%
%ADD17C,0.05000*%
%ADD18C,0.06000*%
%ADD19C,0.08000*%
%ADD20C,0.12000*%
%ADD21C,0.19685*%
%ADD22O,0.06000X0.10000*%
G54D13*
X57460Y149350D02*
X57460Y114350D01*
X62460Y109350D01*
X192460Y109350D02*
X272460Y109350D01*
X979960Y109350D02*
X984960Y104350D01*
X984960Y76850D01*
X162460Y146850D02*
X162460Y109350D01*
X64960Y109350D01*
X192460Y76850D02*
X192460Y109350D01*
X162460Y109350D01*
X414960Y76850D02*
X414960Y109350D01*
X497460Y109350D01*
X527460Y109350D02*
X527460Y76850D01*
X527460Y109350D02*
X612460Y109350D01*
X642460Y76850D02*
X642460Y109350D01*
X729960Y109350D01*
X759960Y76850D02*
X759960Y109350D01*
X842460Y109350D01*
X872460Y76850D02*
X872460Y109350D01*
X954960Y109350D01*
X954960Y146850D02*
X954960Y109350D01*
X979960Y109350D01*
X842460Y146850D02*
X842460Y109350D01*
X872460Y109350D01*
X729960Y146850D02*
X729960Y109350D01*
X759960Y109350D01*
X612460Y146850D02*
X612460Y109350D01*
X642460Y109350D01*
X497460Y146850D02*
X497460Y109350D01*
X527460Y109350D01*
X384960Y146850D02*
X384960Y109350D01*
X414960Y109350D01*
X272460Y146850D02*
X272460Y109350D01*
X302460Y109350D01*
X302460Y76850D02*
X302460Y109350D01*
X384960Y109350D01*
X64960Y81850D02*
X64960Y109350D01*
X62460Y109350D01*
X67460Y149350D02*
X67460Y116850D01*
X212460Y76850D02*
X212460Y84350D01*
X214960Y86850D01*
X269960Y86850D01*
X272460Y84350D01*
X272460Y76850D01*
X322460Y76850D02*
X322460Y84350D01*
X324960Y86850D01*
X382460Y86850D01*
X384960Y84350D01*
X384960Y76850D01*
X434960Y76850D02*
X434960Y84350D01*
X437460Y86850D01*
X494960Y86850D01*
X497460Y84350D01*
X497460Y76850D01*
X547460Y76850D02*
X547460Y84350D01*
X549960Y86850D01*
X609960Y86850D01*
X612460Y84350D01*
X612460Y76850D01*
X662460Y76850D02*
X662460Y84350D01*
X664960Y86850D01*
X727460Y86850D01*
X729960Y84350D01*
X729960Y76850D01*
X779960Y76850D02*
X779960Y84350D01*
X782460Y86850D01*
X839960Y86850D01*
X842460Y84350D01*
X842460Y76850D01*
X892460Y76850D02*
X892460Y84350D01*
X894960Y86850D01*
X952460Y86850D01*
X954960Y84350D01*
X954960Y76850D01*
X1004960Y76850D02*
X1009960Y76850D01*
X1012460Y79350D01*
X1012460Y151850D01*
X1007460Y156850D01*
X987460Y156850D01*
X984960Y154350D01*
X984960Y146850D01*
X934960Y146850D02*
X934960Y139350D01*
X932460Y136850D01*
X874960Y136850D01*
X872460Y139350D01*
X872460Y146850D01*
X822460Y146850D02*
X822460Y139350D01*
X819960Y136850D01*
X762460Y136850D01*
X759960Y139350D01*
X759960Y146850D01*
X709960Y146850D02*
X709960Y139350D01*
X707460Y136850D01*
X644960Y136850D01*
X642460Y139350D01*
X642460Y146850D01*
X592460Y146850D02*
X592460Y139350D01*
X589960Y136850D01*
X529960Y136850D01*
X527460Y139350D01*
X527460Y146850D01*
X477460Y146850D02*
X477460Y139350D01*
X474960Y136850D01*
X417460Y136850D01*
X414960Y139350D01*
X414960Y146850D01*
X364960Y146850D02*
X364960Y139350D01*
X362460Y136850D01*
X304960Y136850D01*
X302460Y139350D01*
X302460Y146850D01*
X252460Y146850D02*
X252460Y139350D01*
X249960Y136850D01*
X194960Y136850D01*
X192460Y139350D01*
X192460Y146850D01*
X142460Y146850D02*
X142460Y139350D01*
X139960Y136850D01*
X89960Y136850D01*
X87460Y139350D01*
X87460Y149350D01*
X44960Y81850D02*
X49960Y81850D01*
X59960Y71850D01*
X122460Y71850D01*
X137460Y86850D01*
X159960Y86850D01*
X162460Y84350D01*
X162460Y76850D01*
G54D15*
X77460Y149350D02*
X77460Y161850D01*
X142460Y176850D02*
X142460Y161850D01*
X182460Y146850D02*
X182460Y161850D01*
X252460Y176850D02*
X252460Y161850D01*
X292460Y146850D02*
X292460Y161850D01*
X364960Y176850D02*
X364960Y161850D01*
X404960Y146850D02*
X404960Y161850D01*
X477460Y176850D02*
X477460Y161850D01*
X517460Y146850D02*
X517460Y161850D01*
X592460Y176850D02*
X592460Y161850D01*
X632460Y146850D02*
X632460Y161850D01*
X749960Y146850D02*
X749960Y161850D01*
X709960Y176850D02*
X709960Y161850D01*
X862460Y146850D02*
X862460Y161850D01*
X822460Y176850D02*
X822460Y161850D01*
X934960Y176850D02*
X934960Y161850D01*
X974960Y146850D02*
X974960Y161850D01*
X1004960Y46850D02*
X1004960Y61850D01*
X964960Y76850D02*
X964960Y61850D01*
X892460Y46850D02*
X892460Y61850D01*
X852460Y76850D02*
X852460Y61850D01*
X779960Y46850D02*
X779960Y61850D01*
X739960Y76850D02*
X739960Y61850D01*
X662460Y46850D02*
X662460Y61850D01*
X622460Y76850D02*
X622460Y61850D01*
X547460Y46850D02*
X547460Y61850D01*
X507460Y76850D02*
X507460Y61850D01*
X434960Y46850D02*
X434960Y61850D01*
X394960Y76850D02*
X394960Y61850D01*
X322460Y46850D02*
X322460Y61850D01*
X282460Y76850D02*
X282460Y61850D01*
X212460Y46850D02*
X212460Y61850D01*
X172460Y76850D02*
X172460Y61850D01*
X64960Y6850D02*
X64960Y51850D01*
X84960Y81850D02*
X84960Y101850D01*
G54D16*
X167460Y129350D02*
X192460Y129350D01*
X277460Y129350D02*
X302460Y129350D01*
X389960Y129350D02*
X414960Y129350D01*
X502460Y129350D02*
X527460Y129350D01*
X617460Y129350D02*
X642460Y129350D01*
X734960Y129350D02*
X759960Y129350D01*
X847460Y129350D02*
X872460Y129350D01*
X959960Y129350D02*
X984960Y129350D01*
X979960Y91850D02*
X954960Y91850D01*
X867460Y91850D02*
X842460Y91850D01*
X754960Y91850D02*
X729960Y91850D01*
X637460Y91850D02*
X612460Y91850D01*
X522460Y91850D02*
X497460Y91850D01*
X409960Y91850D02*
X384960Y91850D01*
X297460Y91850D02*
X272460Y91850D01*
X187460Y91850D02*
X162460Y91850D01*
X77460Y161850D02*
X47460Y161850D01*
G54D17*
X167460Y129350D03*
X192460Y129350D03*
X277460Y129350D03*
X302460Y129350D03*
X389960Y129350D03*
X414960Y129350D03*
X502460Y129350D03*
X527460Y129350D03*
X617460Y129350D03*
X642460Y129350D03*
X734960Y129350D03*
X759960Y129350D03*
X847460Y129350D03*
X872460Y129350D03*
X959960Y129350D03*
X984960Y129350D03*
X979960Y91850D03*
X954960Y91850D03*
X867460Y91850D03*
X842460Y91850D03*
X754960Y91850D03*
X729960Y91850D03*
X637460Y91850D03*
X612460Y91850D03*
X522460Y91850D03*
X497460Y91850D03*
X409960Y91850D03*
X384960Y91850D03*
X297460Y91850D03*
X272460Y91850D03*
X187460Y91850D03*
X162460Y91850D03*
X64960Y51850D03*
X64960Y81850D03*
X84960Y81850D03*
X84960Y101850D03*
X67460Y116850D03*
X44960Y81850D03*
G54D18*
X37460Y179350D02*
X37460Y166850D01*
X42460Y161850D01*
X374960Y161850D02*
X404960Y161850D01*
X1022460Y156850D02*
X1022460Y71850D01*
X1012460Y61850D01*
X547460Y61850D02*
X537460Y61850D01*
X47460Y161850D02*
X42460Y161850D01*
X77460Y161850D02*
X47460Y161850D01*
X142460Y161850D02*
X77460Y161850D01*
X152460Y161850D02*
X142460Y161850D01*
X182460Y161850D02*
X152460Y161850D01*
X252460Y161850D02*
X182460Y161850D01*
X262460Y161850D02*
X252460Y161850D01*
X292460Y161850D02*
X262460Y161850D01*
X364960Y161850D02*
X292460Y161850D01*
X374960Y161850D02*
X364960Y161850D01*
X404960Y161850D02*
X477460Y161850D01*
X487460Y161850D01*
X517460Y161850D01*
X592460Y161850D01*
X602460Y161850D01*
X632460Y161850D01*
X709960Y161850D01*
X749960Y161850D02*
X822460Y161850D01*
X719960Y161850D02*
X749960Y161850D01*
X709960Y161850D02*
X719960Y161850D01*
X862460Y161850D02*
X934960Y161850D01*
X832460Y161850D02*
X862460Y161850D01*
X822460Y161850D02*
X832460Y161850D01*
X934960Y161850D02*
X944960Y161850D01*
X974960Y161850D01*
X1004960Y61850D02*
X1012460Y61850D01*
X994960Y61850D02*
X1004960Y61850D01*
X964960Y61850D02*
X994960Y61850D01*
X892460Y61850D02*
X964960Y61850D01*
X852460Y61850D02*
X882460Y61850D01*
X892460Y61850D01*
X779960Y61850D02*
X852460Y61850D01*
X769960Y61850D02*
X779960Y61850D01*
X739960Y61850D02*
X769960Y61850D01*
X662460Y61850D02*
X739960Y61850D01*
X622460Y61850D02*
X652460Y61850D01*
X662460Y61850D01*
X547460Y61850D02*
X622460Y61850D01*
X537460Y61850D02*
X507460Y61850D01*
X434960Y61850D01*
X424960Y61850D01*
X394960Y61850D01*
X322460Y61850D01*
X312460Y61850D01*
X282460Y61850D01*
X212460Y61850D01*
X202460Y61850D01*
X54960Y61850D02*
X44960Y71850D01*
X32460Y71850D01*
X1022460Y156850D02*
X1014960Y164350D01*
X977460Y164350D01*
X974960Y161850D01*
X54960Y61850D02*
X172460Y61850D01*
X202460Y61850D01*
G54D19*
X202460Y24350D03*
X192460Y24350D03*
X182460Y24350D03*
X172460Y24350D03*
X162460Y24350D03*
X152460Y24350D03*
X142460Y24350D03*
X132460Y24350D03*
X122460Y24350D03*
X112460Y24350D03*
X312460Y24350D03*
X302460Y24350D03*
X292460Y24350D03*
X282460Y24350D03*
X272460Y24350D03*
X262460Y24350D03*
X252460Y24350D03*
X242460Y24350D03*
X232460Y24350D03*
X222460Y24350D03*
X424960Y24350D03*
X414960Y24350D03*
X404960Y24350D03*
X394960Y24350D03*
X384960Y24350D03*
X374960Y24350D03*
X364960Y24350D03*
X354960Y24350D03*
X344960Y24350D03*
X334960Y24350D03*
X537460Y24350D03*
X527460Y24350D03*
X517460Y24350D03*
X507460Y24350D03*
X497460Y24350D03*
X487460Y24350D03*
X477460Y24350D03*
X467460Y24350D03*
X457460Y24350D03*
X447460Y24350D03*
X652460Y24350D03*
X642460Y24350D03*
X632460Y24350D03*
X622460Y24350D03*
X612460Y24350D03*
X602460Y24350D03*
X592460Y24350D03*
X582460Y24350D03*
X572460Y24350D03*
X562460Y24350D03*
X769960Y24350D03*
X759960Y24350D03*
X749960Y24350D03*
X739960Y24350D03*
X729960Y24350D03*
X719960Y24350D03*
X709960Y24350D03*
X699960Y24350D03*
X689960Y24350D03*
X679960Y24350D03*
X882460Y24350D03*
X872460Y24350D03*
X862460Y24350D03*
X852460Y24350D03*
X842460Y24350D03*
X832460Y24350D03*
X822460Y24350D03*
X812460Y24350D03*
X802460Y24350D03*
X792460Y24350D03*
X994960Y24350D03*
X984960Y24350D03*
X974960Y24350D03*
X964960Y24350D03*
X954960Y24350D03*
X944960Y24350D03*
X934960Y24350D03*
X924960Y24350D03*
X914960Y24350D03*
X904960Y24350D03*
X944960Y201850D03*
X954960Y201850D03*
X964960Y201850D03*
X974960Y201850D03*
X984960Y201850D03*
X994960Y201850D03*
X1004960Y201850D03*
X1014960Y201850D03*
X1024960Y201850D03*
X1034960Y201850D03*
X832460Y201850D03*
X842460Y201850D03*
X852460Y201850D03*
X862460Y201850D03*
X872460Y201850D03*
X882460Y201850D03*
X892460Y201850D03*
X902460Y201850D03*
X912460Y201850D03*
X922460Y201850D03*
X719960Y201850D03*
X729960Y201850D03*
X739960Y201850D03*
X749960Y201850D03*
X759960Y201850D03*
X769960Y201850D03*
X779960Y201850D03*
X789960Y201850D03*
X799960Y201850D03*
X809960Y201850D03*
X602460Y201850D03*
X612460Y201850D03*
X622460Y201850D03*
X632460Y201850D03*
X642460Y201850D03*
X652460Y201850D03*
X662460Y201850D03*
X672460Y201850D03*
X682460Y201850D03*
X692460Y201850D03*
X487460Y201850D03*
X497460Y201850D03*
X507460Y201850D03*
X517460Y201850D03*
X527460Y201850D03*
X537460Y201850D03*
X547460Y201850D03*
X557460Y201850D03*
X567460Y201850D03*
X577460Y201850D03*
X374960Y201850D03*
X384960Y201850D03*
X394960Y201850D03*
X404960Y201850D03*
X414960Y201850D03*
X424960Y201850D03*
X434960Y201850D03*
X444960Y201850D03*
X454960Y201850D03*
X464960Y201850D03*
X262460Y201850D03*
X272460Y201850D03*
X282460Y201850D03*
X292460Y201850D03*
X302460Y201850D03*
X312460Y201850D03*
X322460Y201850D03*
X332460Y201850D03*
X342460Y201850D03*
X352460Y201850D03*
X152460Y201850D03*
X162460Y201850D03*
X172460Y201850D03*
X182460Y201850D03*
X192460Y201850D03*
X202460Y201850D03*
X212460Y201850D03*
X222460Y201850D03*
X232460Y201850D03*
X242460Y201850D03*
X47460Y201850D03*
X57460Y201850D03*
X67460Y201850D03*
X77460Y201850D03*
X87460Y201850D03*
X97460Y201850D03*
X107460Y201850D03*
X117460Y201850D03*
X127460Y201850D03*
X137460Y201850D03*
G54D20*
X32460Y111850D03*
X32460Y91850D03*
X32460Y71850D03*
X24960Y6850D03*
X44960Y6850D03*
X64960Y6850D03*
X84960Y6850D03*
G54D21*
X27460Y199350D03*
X1037460Y161850D03*
X1034960Y41850D03*
X102460Y44350D03*
G54D22*
X142460Y46850D03*
X152460Y46850D03*
X162460Y46850D03*
X172460Y46850D03*
X182460Y46850D03*
X192460Y46850D03*
X202460Y46850D03*
X212460Y46850D03*
X212460Y76850D03*
X202460Y76850D03*
X192460Y76850D03*
X182460Y76850D03*
X172460Y76850D03*
X162460Y76850D03*
X152460Y76850D03*
X142460Y76850D03*
X252460Y46850D03*
X262460Y46850D03*
X272460Y46850D03*
X282460Y46850D03*
X292460Y46850D03*
X302460Y46850D03*
X312460Y46850D03*
X322460Y46850D03*
X322460Y76850D03*
X312460Y76850D03*
X302460Y76850D03*
X292460Y76850D03*
X282460Y76850D03*
X272460Y76850D03*
X262460Y76850D03*
X252460Y76850D03*
X364960Y46850D03*
X374960Y46850D03*
X384960Y46850D03*
X394960Y46850D03*
X404960Y46850D03*
X414960Y46850D03*
X424960Y46850D03*
X434960Y46850D03*
X434960Y76850D03*
X424960Y76850D03*
X414960Y76850D03*
X404960Y76850D03*
X394960Y76850D03*
X384960Y76850D03*
X374960Y76850D03*
X364960Y76850D03*
X477460Y46850D03*
X487460Y46850D03*
X497460Y46850D03*
X507460Y46850D03*
X517460Y46850D03*
X527460Y46850D03*
X537460Y46850D03*
X547460Y46850D03*
X547460Y76850D03*
X537460Y76850D03*
X527460Y76850D03*
X517460Y76850D03*
X507460Y76850D03*
X497460Y76850D03*
X487460Y76850D03*
X477460Y76850D03*
X592460Y46850D03*
X602460Y46850D03*
X612460Y46850D03*
X622460Y46850D03*
X632460Y46850D03*
X642460Y46850D03*
X652460Y46850D03*
X662460Y46850D03*
X662460Y76850D03*
X652460Y76850D03*
X642460Y76850D03*
X632460Y76850D03*
X622460Y76850D03*
X612460Y76850D03*
X602460Y76850D03*
X592460Y76850D03*
X709960Y46850D03*
X719960Y46850D03*
X729960Y46850D03*
X739960Y46850D03*
X749960Y46850D03*
X759960Y46850D03*
X769960Y46850D03*
X779960Y46850D03*
X779960Y76850D03*
X769960Y76850D03*
X759960Y76850D03*
X749960Y76850D03*
X739960Y76850D03*
X729960Y76850D03*
X719960Y76850D03*
X709960Y76850D03*
X822460Y46850D03*
X832460Y46850D03*
X842460Y46850D03*
X852460Y46850D03*
X862460Y46850D03*
X872460Y46850D03*
X882460Y46850D03*
X892460Y46850D03*
X892460Y76850D03*
X882460Y76850D03*
X872460Y76850D03*
X862460Y76850D03*
X852460Y76850D03*
X842460Y76850D03*
X832460Y76850D03*
X822460Y76850D03*
X934960Y46850D03*
X944960Y46850D03*
X954960Y46850D03*
X964960Y46850D03*
X974960Y46850D03*
X984960Y46850D03*
X994960Y46850D03*
X1004960Y46850D03*
X1004960Y76850D03*
X994960Y76850D03*
X984960Y76850D03*
X974960Y76850D03*
X964960Y76850D03*
X954960Y76850D03*
X944960Y76850D03*
X934960Y76850D03*
X1004960Y176850D03*
X994960Y176850D03*
X984960Y176850D03*
X974960Y176850D03*
X964960Y176850D03*
X954960Y176850D03*
X944960Y176850D03*
X934960Y176850D03*
X934960Y146850D03*
X944960Y146850D03*
X954960Y146850D03*
X964960Y146850D03*
X974960Y146850D03*
X984960Y146850D03*
X994960Y146850D03*
X1004960Y146850D03*
X892460Y176850D03*
X882460Y176850D03*
X872460Y176850D03*
X862460Y176850D03*
X852460Y176850D03*
X842460Y176850D03*
X832460Y176850D03*
X822460Y176850D03*
X822460Y146850D03*
X832460Y146850D03*
X842460Y146850D03*
X852460Y146850D03*
X862460Y146850D03*
X872460Y146850D03*
X882460Y146850D03*
X892460Y146850D03*
X779960Y176850D03*
X769960Y176850D03*
X759960Y176850D03*
X749960Y176850D03*
X739960Y176850D03*
X729960Y176850D03*
X719960Y176850D03*
X709960Y176850D03*
X709960Y146850D03*
X719960Y146850D03*
X729960Y146850D03*
X739960Y146850D03*
X749960Y146850D03*
X759960Y146850D03*
X769960Y146850D03*
X779960Y146850D03*
X662460Y176850D03*
X652460Y176850D03*
X642460Y176850D03*
X632460Y176850D03*
X622460Y176850D03*
X612460Y176850D03*
X602460Y176850D03*
X592460Y176850D03*
X592460Y146850D03*
X602460Y146850D03*
X612460Y146850D03*
X622460Y146850D03*
X632460Y146850D03*
X642460Y146850D03*
X652460Y146850D03*
X662460Y146850D03*
X547460Y176850D03*
X537460Y176850D03*
X527460Y176850D03*
X517460Y176850D03*
X507460Y176850D03*
X497460Y176850D03*
X487460Y176850D03*
X477460Y176850D03*
X477460Y146850D03*
X487460Y146850D03*
X497460Y146850D03*
X507460Y146850D03*
X517460Y146850D03*
X527460Y146850D03*
X537460Y146850D03*
X547460Y146850D03*
X434960Y176850D03*
X424960Y176850D03*
X414960Y176850D03*
X404960Y176850D03*
X394960Y176850D03*
X384960Y176850D03*
X374960Y176850D03*
X364960Y176850D03*
X364960Y146850D03*
X374960Y146850D03*
X384960Y146850D03*
X394960Y146850D03*
X404960Y146850D03*
X414960Y146850D03*
X424960Y146850D03*
X434960Y146850D03*
X322460Y176850D03*
X312460Y176850D03*
X302460Y176850D03*
X292460Y176850D03*
X282460Y176850D03*
X272460Y176850D03*
X262460Y176850D03*
X252460Y176850D03*
X252460Y146850D03*
X262460Y146850D03*
X272460Y146850D03*
X282460Y146850D03*
X292460Y146850D03*
X302460Y146850D03*
X312460Y146850D03*
X322460Y146850D03*
X212460Y176850D03*
X202460Y176850D03*
X192460Y176850D03*
X182460Y176850D03*
X172460Y176850D03*
X162460Y176850D03*
X152460Y176850D03*
X142460Y176850D03*
X142460Y146850D03*
X152460Y146850D03*
X162460Y146850D03*
X172460Y146850D03*
X182460Y146850D03*
X192460Y146850D03*
X202460Y146850D03*
X212460Y146850D03*
X107460Y179350D03*
X97460Y179350D03*
X87460Y179350D03*
X77460Y179350D03*
X67460Y179350D03*
X57460Y179350D03*
X47460Y179350D03*
X37460Y179350D03*
X37460Y149350D03*
X47460Y149350D03*
X57460Y149350D03*
X67460Y149350D03*
X77460Y149350D03*
X87460Y149350D03*
X97460Y149350D03*
X107460Y149350D03*
M02*
