%FSLAX35Y35*%
%MOIN*%
%IN16 = Copper top L2   ( x.Top )*%
%ADD10C,0.00591*%
%ADD11C,0.00768*%
%ADD12C,0.01181*%
%ADD13C,0.02362*%
%ADD14C,0.03200*%
%ADD15C,0.04000*%
%ADD16C,0.05000*%
%ADD17C,0.06000*%
%ADD18C,0.08000*%
%ADD19C,0.12000*%
%ADD20C,0.19685*%
%ADD21O,0.06000X0.10000*%
G54D14*
X192460Y159350D02*
X192460Y149350D01*
X244960Y159350D02*
X244960Y149350D01*
X304960Y159350D02*
X304960Y149350D01*
X357460Y161850D02*
X357460Y149350D01*
X417460Y161850D02*
X417460Y149350D01*
X469960Y161850D02*
X469960Y149350D01*
X529960Y161850D02*
X529960Y149350D01*
X517460Y86850D02*
X517460Y99350D01*
X457460Y86850D02*
X457460Y99350D01*
X407460Y86850D02*
X407460Y99350D01*
X347460Y86850D02*
X347460Y99350D01*
X294960Y86850D02*
X294960Y99350D01*
X234960Y86850D02*
X234960Y99350D01*
X182460Y86850D02*
X182460Y99350D01*
X122460Y86850D02*
X122460Y99350D01*
X49960Y16850D02*
X49960Y44350D01*
X64960Y59350D01*
X64960Y109350D01*
X152460Y141850D02*
X264960Y141850D01*
X377460Y141850D01*
X489960Y141850D01*
X534960Y141850D01*
X539960Y136850D01*
X539960Y111850D01*
X534960Y106850D01*
X497460Y106850D01*
X387460Y106850D01*
X274960Y106850D01*
X162460Y106850D01*
X69960Y16850D02*
X69960Y41850D01*
X79960Y51850D01*
X79960Y101850D01*
X182460Y56850D02*
X182460Y24350D01*
X172460Y24350D02*
X172460Y56850D01*
X162460Y56850D02*
X162460Y24350D01*
X152460Y24350D02*
X152460Y56850D01*
X142460Y56850D02*
X142460Y24350D01*
X132460Y56850D02*
X132460Y24350D01*
X122460Y24350D02*
X122460Y56850D01*
X132460Y86850D02*
X132460Y74350D01*
X129960Y71850D01*
X114960Y71850D01*
X112460Y69350D01*
X112460Y24350D01*
X294960Y24350D02*
X294960Y56850D01*
X284960Y56850D02*
X284960Y26850D01*
X274960Y24350D02*
X274960Y56850D01*
X264960Y56850D02*
X264960Y24350D01*
X254960Y24350D02*
X254960Y56850D01*
X244960Y56850D02*
X244960Y24350D01*
X234960Y24350D02*
X234960Y56850D01*
X244960Y86850D02*
X244960Y74350D01*
X242460Y71850D01*
X227460Y71850D01*
X224960Y69350D01*
X224960Y24350D01*
X407460Y24350D02*
X407460Y56850D01*
X397460Y24350D02*
X397460Y56850D01*
X387460Y24350D02*
X387460Y54350D01*
X377460Y24350D02*
X377460Y56850D01*
X367460Y24350D02*
X367460Y56850D01*
X357460Y24350D02*
X357460Y56850D01*
X347460Y24350D02*
X347460Y54350D01*
X357460Y86850D02*
X357460Y74350D01*
X354960Y71850D01*
X339960Y71850D01*
X337460Y69350D01*
X337460Y24350D01*
X517460Y56850D02*
X517460Y24350D01*
X507460Y24350D02*
X507460Y56850D01*
X497460Y24350D02*
X497460Y56850D01*
X487460Y24350D02*
X487460Y59350D01*
X477460Y24350D02*
X477460Y54350D01*
X467460Y24350D02*
X467460Y54350D01*
X457460Y24350D02*
X457460Y56850D01*
X467460Y86850D02*
X467460Y74350D01*
X464960Y71850D01*
X449960Y71850D01*
X447460Y69350D01*
X447460Y24350D01*
X469960Y191850D02*
X469960Y224350D01*
X479960Y191850D02*
X479960Y224350D01*
X489960Y224350D02*
X489960Y191850D01*
X499960Y224350D02*
X499960Y191850D01*
X509960Y191850D02*
X509960Y224350D01*
X519960Y224350D02*
X519960Y191850D01*
X529960Y191850D02*
X529960Y224350D01*
X519960Y161850D02*
X519960Y174350D01*
X522460Y176850D01*
X537460Y176850D01*
X539960Y179350D01*
X539960Y224350D01*
X357460Y191850D02*
X357460Y224350D01*
X367460Y191850D02*
X367460Y224350D01*
X377460Y224350D02*
X377460Y191850D01*
X387460Y191850D02*
X387460Y224350D01*
X397460Y224350D02*
X397460Y191850D01*
X407460Y224350D02*
X407460Y191850D01*
X417460Y191850D02*
X417460Y224350D01*
X407460Y161850D02*
X407460Y174350D01*
X409960Y176850D01*
X424960Y176850D01*
X427460Y179350D01*
X427460Y224350D01*
X244960Y189350D02*
X244960Y224350D01*
X254960Y224350D02*
X254960Y189350D01*
X264960Y189350D02*
X264960Y224350D01*
X274960Y224350D02*
X274960Y189350D01*
X284960Y224350D02*
X284960Y189350D01*
X294960Y189350D02*
X294960Y224350D01*
X304960Y224350D02*
X304960Y189350D01*
X294960Y159350D02*
X294960Y171850D01*
X297460Y174350D01*
X312460Y174350D01*
X314960Y176850D01*
X314960Y224350D01*
X132460Y189350D02*
X132460Y224350D01*
X142460Y224350D02*
X142460Y189350D01*
X152460Y189350D02*
X152460Y224350D01*
X162460Y224350D02*
X162460Y189350D01*
X172460Y189350D02*
X172460Y224350D01*
X182460Y224350D02*
X182460Y189350D01*
X192460Y189350D02*
X192460Y224350D01*
X182460Y159350D02*
X182460Y171850D01*
X184960Y174350D01*
X199960Y174350D01*
X202460Y176850D01*
X202460Y224350D01*
X29960Y16850D02*
X29960Y41850D01*
X54960Y66850D01*
X54960Y86850D01*
G54D15*
X132460Y159350D02*
X132460Y154350D01*
X137460Y149350D01*
X244960Y149350D02*
X304960Y149350D01*
X542460Y149350D02*
X547460Y144350D01*
X547460Y104350D01*
X542460Y99350D01*
X407460Y99350D02*
X347460Y99350D01*
X92460Y99350D02*
X77460Y116850D01*
X42460Y116850D01*
X192460Y149350D02*
X137460Y149350D01*
X244960Y149350D02*
X192460Y149350D01*
X304960Y149350D02*
X357460Y149350D01*
X417460Y149350D01*
X469960Y149350D01*
X529960Y149350D01*
X542460Y149350D01*
X517460Y99350D02*
X542460Y99350D01*
X457460Y99350D02*
X517460Y99350D01*
X407460Y99350D02*
X457460Y99350D01*
X347460Y99350D02*
X294960Y99350D01*
X234960Y99350D01*
X182460Y99350D01*
X122460Y99350D01*
X92460Y99350D01*
X9960Y16850D02*
X9960Y109350D01*
X17460Y116850D01*
X42460Y116850D01*
G54D16*
X64960Y109350D03*
X152460Y141850D03*
X264960Y141850D03*
X377460Y141850D03*
X489960Y141850D03*
X497460Y106850D03*
X387460Y106850D03*
X274960Y106850D03*
X162460Y106850D03*
X79960Y101850D03*
X54960Y86850D03*
G54D18*
X182460Y24350D03*
X172460Y24350D03*
X162460Y24350D03*
X152460Y24350D03*
X142460Y24350D03*
X132460Y24350D03*
X122460Y24350D03*
X112460Y24350D03*
X102460Y24350D03*
X92460Y24350D03*
X294960Y24350D03*
X284960Y24350D03*
X274960Y24350D03*
X264960Y24350D03*
X254960Y24350D03*
X244960Y24350D03*
X234960Y24350D03*
X224960Y24350D03*
X214960Y24350D03*
X204960Y24350D03*
X407460Y24350D03*
X397460Y24350D03*
X387460Y24350D03*
X377460Y24350D03*
X367460Y24350D03*
X357460Y24350D03*
X347460Y24350D03*
X337460Y24350D03*
X327460Y24350D03*
X317460Y24350D03*
X517460Y24350D03*
X507460Y24350D03*
X497460Y24350D03*
X487460Y24350D03*
X477460Y24350D03*
X467460Y24350D03*
X457460Y24350D03*
X447460Y24350D03*
X437460Y24350D03*
X427460Y24350D03*
X469960Y224350D03*
X479960Y224350D03*
X489960Y224350D03*
X499960Y224350D03*
X509960Y224350D03*
X519960Y224350D03*
X529960Y224350D03*
X539960Y224350D03*
X549960Y224350D03*
X559960Y224350D03*
X357460Y224350D03*
X367460Y224350D03*
X377460Y224350D03*
X387460Y224350D03*
X397460Y224350D03*
X407460Y224350D03*
X417460Y224350D03*
X427460Y224350D03*
X437460Y224350D03*
X447460Y224350D03*
X244960Y224350D03*
X254960Y224350D03*
X264960Y224350D03*
X274960Y224350D03*
X284960Y224350D03*
X294960Y224350D03*
X304960Y224350D03*
X314960Y224350D03*
X324960Y224350D03*
X334960Y224350D03*
X132460Y224350D03*
X142460Y224350D03*
X152460Y224350D03*
X162460Y224350D03*
X172460Y224350D03*
X182460Y224350D03*
X192460Y224350D03*
X202460Y224350D03*
X212460Y224350D03*
X222460Y224350D03*
X92460Y24350D02*
X92460Y11850D01*
X94960Y9350D01*
X102460Y9350D01*
X564960Y9350D02*
X589960Y34350D01*
X589960Y224350D01*
X572460Y241850D01*
X437460Y241850D02*
X334960Y241850D01*
X222460Y224350D02*
X222460Y241850D01*
X217460Y241850D01*
X324960Y224350D02*
X324960Y241850D01*
X222460Y241850D01*
X334960Y224350D02*
X334960Y241850D01*
X324960Y241850D01*
X437460Y224350D02*
X437460Y241850D01*
X447460Y241850D01*
X447460Y224350D02*
X447460Y241850D01*
X549960Y241850D01*
X549960Y224350D02*
X549960Y241850D01*
X559960Y241850D01*
X559960Y224350D02*
X559960Y241850D01*
X572460Y241850D01*
X437460Y24350D02*
X437460Y9350D01*
X564960Y9350D01*
X427460Y24350D02*
X427460Y9350D01*
X437460Y9350D01*
X327460Y24350D02*
X327460Y9350D01*
X427460Y9350D01*
X317460Y24350D02*
X317460Y9350D01*
X327460Y9350D01*
X214960Y24350D02*
X214960Y9350D01*
X317460Y9350D01*
X204960Y24350D02*
X204960Y9350D01*
X214960Y9350D01*
X102460Y24350D02*
X102460Y9350D01*
X204960Y9350D01*
X217460Y241850D02*
X212460Y241850D01*
X54960Y241850D02*
X42460Y229350D01*
X42460Y136850D01*
X212460Y224350D02*
X212460Y241850D01*
X54960Y241850D01*
G54D19*
X42460Y136850D03*
X42460Y116850D03*
X42460Y96850D03*
X9960Y16850D03*
X29960Y16850D03*
X49960Y16850D03*
X69960Y16850D03*
G54D20*
X19960Y216850D03*
X572460Y189350D03*
X557460Y39350D03*
X92460Y56850D03*
G54D21*
X122460Y56850D03*
X132460Y56850D03*
X142460Y56850D03*
X152460Y56850D03*
X162460Y56850D03*
X172460Y56850D03*
X182460Y56850D03*
X192460Y56850D03*
X192460Y86850D03*
X182460Y86850D03*
X172460Y86850D03*
X162460Y86850D03*
X152460Y86850D03*
X142460Y86850D03*
X132460Y86850D03*
X122460Y86850D03*
X234960Y56850D03*
X244960Y56850D03*
X254960Y56850D03*
X264960Y56850D03*
X274960Y56850D03*
X284960Y56850D03*
X294960Y56850D03*
X304960Y56850D03*
X304960Y86850D03*
X294960Y86850D03*
X284960Y86850D03*
X274960Y86850D03*
X264960Y86850D03*
X254960Y86850D03*
X244960Y86850D03*
X234960Y86850D03*
X347460Y56850D03*
X357460Y56850D03*
X367460Y56850D03*
X377460Y56850D03*
X387460Y56850D03*
X397460Y56850D03*
X407460Y56850D03*
X417460Y56850D03*
X417460Y86850D03*
X407460Y86850D03*
X397460Y86850D03*
X387460Y86850D03*
X377460Y86850D03*
X367460Y86850D03*
X357460Y86850D03*
X347460Y86850D03*
X457460Y56850D03*
X467460Y56850D03*
X477460Y56850D03*
X487460Y56850D03*
X497460Y56850D03*
X507460Y56850D03*
X517460Y56850D03*
X527460Y56850D03*
X527460Y86850D03*
X517460Y86850D03*
X507460Y86850D03*
X497460Y86850D03*
X487460Y86850D03*
X477460Y86850D03*
X467460Y86850D03*
X457460Y86850D03*
X529960Y191850D03*
X519960Y191850D03*
X509960Y191850D03*
X499960Y191850D03*
X489960Y191850D03*
X479960Y191850D03*
X469960Y191850D03*
X459960Y191850D03*
X459960Y161850D03*
X469960Y161850D03*
X479960Y161850D03*
X489960Y161850D03*
X499960Y161850D03*
X509960Y161850D03*
X519960Y161850D03*
X529960Y161850D03*
X417460Y191850D03*
X407460Y191850D03*
X397460Y191850D03*
X387460Y191850D03*
X377460Y191850D03*
X367460Y191850D03*
X357460Y191850D03*
X347460Y191850D03*
X347460Y161850D03*
X357460Y161850D03*
X367460Y161850D03*
X377460Y161850D03*
X387460Y161850D03*
X397460Y161850D03*
X407460Y161850D03*
X417460Y161850D03*
X304960Y189350D03*
X294960Y189350D03*
X284960Y189350D03*
X274960Y189350D03*
X264960Y189350D03*
X254960Y189350D03*
X244960Y189350D03*
X234960Y189350D03*
X234960Y159350D03*
X244960Y159350D03*
X254960Y159350D03*
X264960Y159350D03*
X274960Y159350D03*
X284960Y159350D03*
X294960Y159350D03*
X304960Y159350D03*
X192460Y189350D03*
X182460Y189350D03*
X172460Y189350D03*
X162460Y189350D03*
X152460Y189350D03*
X142460Y189350D03*
X132460Y189350D03*
X122460Y189350D03*
X122460Y159350D03*
X132460Y159350D03*
X142460Y159350D03*
X152460Y159350D03*
X162460Y159350D03*
X172460Y159350D03*
X182460Y159350D03*
X192460Y159350D03*
M02*
