%FSLAX35Y35*%
%MOIN*%
%IN2 = Copper bottom L1   ( x.Bot )*%
%ADD10C,0.00591*%
%ADD11C,0.01024*%
%ADD12C,0.01181*%
%ADD13C,0.01575*%
%ADD14C,0.02362*%
%ADD15C,0.02400*%
%ADD16C,0.04000*%
%ADD17C,0.06000*%
%ADD18C,0.06500*%
%ADD19C,0.08000*%
%ADD20C,0.11811*%
%ADD21C,0.19685*%
%ADD22R,0.05000X0.05000*%
G54D15*
X244600Y126750D02*
X224400Y126750D01*
X216200Y134950D01*
X204500Y134950D01*
X202100Y132550D01*
X202100Y126550D01*
X121600Y170150D02*
X121600Y161950D01*
X128700Y154850D01*
X184500Y154850D01*
X142000Y113050D02*
X95300Y113050D01*
X92100Y116250D01*
X92100Y126550D01*
X102200Y159950D02*
X102200Y179750D01*
X102200Y159950D02*
X114900Y147250D01*
X146500Y147250D01*
X152100Y141650D01*
X152100Y126550D01*
X92200Y179750D02*
X92200Y155950D01*
X107300Y140850D01*
X137300Y140850D01*
X142100Y136050D01*
X142100Y126550D01*
X156400Y95550D02*
X156400Y113050D01*
X156300Y113150D02*
X156400Y113050D01*
X244500Y115650D02*
X165900Y115650D01*
X162100Y119450D01*
X162100Y126550D01*
X162050Y20705D02*
X162050Y66500D01*
X162100Y66550D01*
X152050Y20705D02*
X152050Y66500D01*
X152100Y66550D01*
X142050Y20705D02*
X142050Y66500D01*
X142100Y66550D01*
X132050Y20705D02*
X132050Y66500D01*
X132100Y66550D01*
X122050Y20705D02*
X122050Y66500D01*
X122100Y66550D01*
X112050Y20705D02*
X112050Y52400D01*
X109500Y54950D01*
X43900Y54950D02*
X109500Y54950D01*
X40011Y58838D02*
X43900Y54950D01*
X40011Y58838D02*
X39872Y74722D01*
X43300Y78150D01*
X101700Y78150D01*
X101900Y77950D01*
X102050Y20705D02*
X102050Y45200D01*
X98300Y48950D01*
X37200Y48950D02*
X98300Y48950D01*
X32900Y53250D02*
X37200Y48950D01*
X32900Y53250D02*
X32900Y78750D01*
X38000Y83850D01*
X111900Y83850D01*
X92050Y20705D02*
X92050Y40300D01*
X89500Y42850D01*
X30400Y42850D02*
X89500Y42850D01*
X30400Y42850D02*
X26400Y46850D01*
X26400Y83250D01*
X32400Y89250D01*
X121800Y89250D01*
X82050Y20705D02*
X82050Y34100D01*
X79400Y36750D01*
X26600Y36750D01*
X20400Y42950D01*
X20400Y87450D02*
X20400Y42950D01*
X20400Y87450D02*
X28400Y95450D01*
X132200Y95450D01*
X62050Y20705D02*
X62050Y28300D01*
X59300Y31050D01*
X21500Y31050D02*
X59300Y31050D01*
X21500Y31050D02*
X14800Y37750D01*
X14800Y92350D02*
X14800Y37750D01*
X14800Y92350D02*
X24200Y101750D01*
X137900Y101750D01*
X142600Y97050D01*
X122700Y77150D01*
X113700Y77150D01*
X112100Y75550D01*
X112100Y66550D01*
G54D16*
X172050Y10705D02*
X162050Y10705D01*
X152050Y10705D01*
X142050Y10705D01*
X132050Y10705D01*
X122050Y10705D01*
X112050Y10705D01*
X102050Y10705D01*
X92050Y10705D01*
X82050Y10705D01*
X72050Y10705D01*
X62050Y10705D01*
X52050Y10705D01*
X4200Y109150D02*
X4200Y13550D01*
X4200Y115450D02*
X6500Y117750D01*
X13400Y117750D01*
X72100Y116550D02*
X72100Y126550D01*
X64700Y109150D02*
X72100Y116550D01*
X64700Y109150D02*
X4200Y109150D01*
X4200Y115450D01*
X72200Y179750D02*
X72200Y126650D01*
X72100Y126550D01*
X121600Y200150D02*
X77000Y200150D01*
X72200Y195350D01*
X72200Y179750D01*
X4200Y13550D02*
X13700Y4050D01*
X36000Y4050D01*
X42654Y10705D01*
X52050Y10705D01*
X131600Y200150D02*
X186300Y200150D01*
X192100Y194350D01*
X192100Y126550D01*
X82200Y179750D02*
X82200Y149350D01*
X92100Y139450D01*
X92100Y126550D01*
X62100Y126550D02*
X62100Y134150D01*
X58500Y137750D01*
X13400Y137750D01*
G54D17*
X244600Y126750D03*
X184500Y154850D03*
X142000Y113050D03*
X156400Y95550D03*
X156300Y113150D03*
X244500Y115650D03*
X101900Y77950D03*
X111900Y83850D03*
X121800Y89250D03*
X132200Y95450D03*
G54D19*
X121600Y200150D03*
X131600Y200150D03*
X121600Y190150D03*
X131600Y190150D03*
X121600Y180150D03*
X131600Y180150D03*
X121600Y170150D03*
X131600Y170150D03*
X102200Y179750D03*
X92200Y179750D03*
X82200Y179750D03*
X72200Y179750D03*
X172050Y20705D03*
X172050Y10705D03*
X162050Y20705D03*
X162050Y10705D03*
X152050Y20705D03*
X152050Y10705D03*
X142050Y20705D03*
X142050Y10705D03*
X132050Y20705D03*
X132050Y10705D03*
X122050Y20705D03*
X122050Y10705D03*
X112050Y20705D03*
X112050Y10705D03*
X102050Y20705D03*
X102050Y10705D03*
X92050Y20705D03*
X92050Y10705D03*
X82050Y20705D03*
X82050Y10705D03*
X72050Y20705D03*
X72050Y10705D03*
X62050Y20705D03*
X62050Y10705D03*
X52050Y20705D03*
X52050Y10705D03*
X62100Y126550D03*
X72100Y126550D03*
X82100Y126550D03*
X92100Y126550D03*
X102100Y126550D03*
X112100Y126550D03*
X122100Y126550D03*
X132100Y126550D03*
X142100Y126550D03*
X152100Y126550D03*
X162100Y126550D03*
X172100Y126550D03*
X182100Y126550D03*
X192100Y126550D03*
X202100Y126550D03*
X62100Y66550D03*
X72100Y66550D03*
X82100Y66550D03*
X92100Y66550D03*
X102100Y66550D03*
X112100Y66550D03*
X122100Y66550D03*
X132100Y66550D03*
X142100Y66550D03*
X152100Y66550D03*
X162100Y66550D03*
X172100Y66550D03*
X182100Y66550D03*
X192100Y66550D03*
X202100Y66550D03*
G54D20*
X13400Y137750D03*
X13400Y117750D03*
G54D21*
X228800Y15250D03*
X23100Y194550D03*
X182600Y83050D03*
X24700Y16650D03*
M02*
