%FSLAX35Y35*%
%MOIN*%
%IN2 = Copper bottom L1   ( x.Bot )*%
%ADD10C,0.00591*%
%ADD11C,0.00768*%
%ADD12C,0.01024*%
%ADD13C,0.01181*%
%ADD14C,0.04000*%
%ADD15C,0.05000*%
%ADD16C,0.06000*%
%ADD17C,0.07087*%
%ADD18C,0.07874*%
%ADD19C,0.09055*%
%ADD20C,0.11811*%
%ADD21C,0.12000*%
%ADD22C,0.19685*%
%ADD23R,0.08500X0.06500*%
%ADD24O,0.08500X0.06500*%
G54D14*
X112460Y131850D02*
X114960Y129350D01*
X114960Y114350D01*
X86210Y84350D02*
X86210Y73100D01*
X94960Y64350D02*
X102460Y64350D01*
X86210Y73100D02*
X94960Y64350D01*
X86210Y110600D02*
X86210Y84350D01*
X82460Y114350D02*
X86210Y110600D01*
X59960Y114350D02*
X82460Y114350D01*
X156673Y75728D02*
X106338Y75728D01*
X102460Y71850D01*
X102460Y64350D01*
X114960Y64350D01*
X7460Y66850D02*
X19960Y66850D01*
X37460Y66850D02*
X54960Y84350D01*
X73710Y84350D01*
X114960Y16850D02*
X29960Y16850D01*
X19960Y26850D01*
X19960Y36850D01*
X19960Y66850D02*
X37460Y66850D01*
X47460Y36850D02*
X19960Y36850D01*
X19960Y66850D01*
X47460Y104350D02*
X47460Y91850D01*
X42460Y86850D01*
X7460Y86850D01*
X114960Y36850D02*
X87460Y36850D01*
X99960Y114350D02*
X99960Y129350D01*
X102460Y131850D01*
X47460Y64350D02*
X72460Y64350D01*
X79960Y71850D01*
X79960Y84350D01*
G54D15*
X73710Y84350D03*
X79960Y84350D03*
X86210Y84350D03*
G54D17*
X47460Y36850D03*
X87460Y36850D03*
X99960Y114350D03*
X59960Y114350D03*
X112460Y131850D03*
X102460Y131850D03*
X47460Y104350D03*
X47460Y64350D03*
G54D18*
X114960Y64350D03*
X114960Y114350D03*
G54D19*
X7460Y106850D03*
X7460Y86850D03*
X7460Y66850D03*
G54D20*
X242460Y34350D03*
X242460Y14350D03*
X242460Y99350D03*
X242460Y79350D03*
G54D21*
X156673Y122972D03*
X156673Y75728D03*
X148799Y99350D03*
X204704Y122972D03*
X204704Y75728D03*
G54D22*
X14960Y131850D03*
X242460Y131850D03*
X14960Y14350D03*
X242460Y56850D03*
G54D23*
X114960Y36850D03*
G54D24*
X114960Y26850D03*
X114960Y16850D03*
M02*
