%FSLAX35Y35*%
%MOIN*%
%IN2 = Copper bottom L1   ( x.Bot )*%
%ADD10C,0.00591*%
%ADD11C,0.00787*%
%ADD12C,0.01024*%
%ADD13C,0.01181*%
%ADD14C,0.02362*%
%ADD15C,0.03200*%
%ADD16C,0.06000*%
%ADD17C,0.06500*%
%ADD18C,0.08000*%
%ADD19C,0.10000*%
%ADD20C,0.12000*%
%ADD21C,0.19685*%
%ADD22R,0.08500X0.06500*%
%ADD23O,0.08500X0.06500*%
G54D15*
X229960Y202500D02*
X284960Y202500D01*
X297760Y189700D01*
X297760Y137500D01*
X219960Y192500D02*
X209960Y192500D01*
X199960Y182500D01*
X199960Y160000D01*
X204960Y155000D01*
X287460Y155000D01*
G54D16*
X180118Y139857D02*
X180118Y202500D01*
X180118Y139857D02*
X177760Y137500D01*
X179960Y30000D02*
X169960Y30000D01*
X219960Y202500D02*
X180118Y202500D01*
X19960Y197500D02*
X67460Y197500D01*
X89960Y197500D01*
X94960Y192500D01*
X114960Y192500D01*
X129960Y192500D01*
X134803Y187657D01*
X147460Y187657D01*
X152618Y187657D01*
X167460Y202500D01*
X180118Y202500D01*
X287460Y155000D03*
X227460Y47500D02*
X227460Y30000D01*
X227460Y47500D02*
X222460Y52500D01*
X89960Y52500D01*
X74960Y67500D01*
X74960Y117500D01*
X67460Y125000D01*
X49960Y125000D01*
X237760Y30300D02*
X237760Y77500D01*
X237760Y30300D02*
X237460Y30000D01*
X247760Y30300D02*
X247760Y77500D01*
X247760Y30300D02*
X247460Y30000D01*
X257760Y30300D02*
X257760Y77500D01*
X257760Y30300D02*
X257460Y30000D01*
G54D18*
X67460Y177500D03*
X67460Y197500D03*
X219960Y202500D03*
X229960Y202500D03*
X219960Y192500D03*
X229960Y192500D03*
X219960Y182500D03*
X229960Y182500D03*
X219960Y172500D03*
X229960Y172500D03*
X158160Y117500D03*
X158160Y107500D03*
X158160Y97500D03*
X168160Y117500D03*
X168160Y107500D03*
X168160Y97500D03*
X167760Y137500D03*
X177760Y137500D03*
X187760Y137500D03*
X197760Y137500D03*
X207760Y137500D03*
X217760Y137500D03*
X227760Y137500D03*
X237760Y137500D03*
X247760Y137500D03*
X257760Y137500D03*
X267760Y137500D03*
X277760Y137500D03*
X287760Y137500D03*
X297760Y137500D03*
X307760Y137500D03*
X167760Y77500D03*
X177760Y77500D03*
X187760Y77500D03*
X197760Y77500D03*
X207760Y77500D03*
X217760Y77500D03*
X227760Y77500D03*
X237760Y77500D03*
X247760Y77500D03*
X257760Y77500D03*
X267760Y77500D03*
X277760Y77500D03*
X287760Y77500D03*
X297760Y77500D03*
X307760Y77500D03*
X199960Y30000D03*
X189960Y30000D03*
X179960Y30000D03*
X169960Y30000D03*
X227460Y30000D03*
X237460Y30000D03*
X247460Y30000D03*
X257460Y30000D03*
X147460Y207342D03*
X147460Y187657D03*
G54D19*
X169960Y30000D02*
X77460Y30000D01*
X17460Y90000D01*
X17460Y105000D01*
X49960Y105000D02*
X17460Y105000D01*
X17460Y150000D01*
X4960Y162500D02*
X17460Y150000D01*
X4960Y162500D02*
X4960Y190000D01*
X12460Y197500D01*
X19960Y197500D01*
G54D20*
X49960Y145000D03*
X49960Y125000D03*
X49960Y105000D03*
X19960Y177500D03*
X19960Y197500D03*
G54D21*
X342460Y205000D03*
X339960Y20000D03*
X22460Y20000D03*
X94960Y155000D03*
G54D22*
X114960Y182500D03*
G54D23*
X114960Y192500D03*
X114960Y202500D03*
M02*
