%FSLAX35Y35*%
%MOIN*%
%IN16 = Copper top L2   ( x.Top )*%
%ADD10C,0.00591*%
%ADD11C,0.00787*%
%ADD12C,0.01024*%
%ADD13C,0.01181*%
%ADD14C,0.02362*%
%ADD15C,0.03200*%
%ADD16C,0.06000*%
%ADD17C,0.06500*%
%ADD18C,0.08000*%
%ADD19C,0.10000*%
%ADD20C,0.12000*%
%ADD21C,0.19685*%
%ADD22R,0.08500X0.06500*%
%ADD23O,0.08500X0.06500*%
G54D15*
X287460Y155000D02*
X314960Y155000D01*
X324960Y145000D01*
X324960Y115000D01*
X314960Y105000D01*
X284960Y105000D01*
X277760Y97800D01*
X277760Y77500D01*
X229960Y192500D02*
X334960Y192500D01*
X347460Y180000D02*
X334960Y192500D01*
X347460Y60000D02*
X347460Y180000D01*
X347460Y60000D02*
X334960Y47500D01*
X299960Y47500D02*
X334960Y47500D01*
X299960Y47500D02*
X287760Y59700D01*
X287760Y77500D01*
X219960Y182500D02*
X212460Y182500D01*
X209960Y180000D02*
X212460Y182500D01*
X209960Y150000D02*
X209960Y180000D01*
X209960Y150000D02*
X212460Y147500D01*
X304960Y147500D01*
X307760Y144700D01*
X307760Y137500D01*
X229960Y182500D02*
X327460Y182500D01*
X339960Y170000D02*
X327460Y182500D01*
X339960Y170000D02*
X339960Y65000D01*
X329960Y55000D01*
X304960Y55000D02*
X329960Y55000D01*
X304960Y55000D02*
X297760Y62200D01*
X297760Y77500D01*
X219960Y167500D02*
X219960Y172500D01*
X224960Y162500D02*
X219960Y167500D01*
X322460Y162500D02*
X224960Y162500D01*
X332460Y152500D02*
X322460Y162500D01*
X332460Y152500D02*
X332460Y70000D01*
X324960Y62500D01*
X312460Y62500D01*
X307760Y67200D01*
X307760Y77500D01*
G54D16*
X199960Y30000D02*
X199960Y22500D01*
X192460Y15000D01*
X74960Y15000D02*
X192460Y15000D01*
X74960Y15000D02*
X7460Y82500D01*
X7460Y137500D01*
X14960Y145000D01*
X34960Y145000D01*
X19960Y177500D02*
X34960Y177500D01*
X34960Y145000D01*
X34960Y177500D02*
X67460Y177500D01*
X34960Y145000D02*
X49960Y145000D01*
X67460Y177500D02*
X72460Y182500D01*
X114960Y182500D01*
X287460Y155000D03*
X49960Y125000D02*
X97460Y125000D01*
X142460Y170000D01*
X167760Y170000D01*
X167760Y137500D02*
X167760Y170000D01*
X114960Y202500D02*
X119803Y207342D01*
X147460Y207342D01*
X157618Y207342D01*
X167760Y197200D01*
X167760Y170000D01*
X189960Y30000D02*
X189960Y42500D01*
X199960Y52500D01*
X222460Y52500D01*
X227760Y57800D01*
X227760Y77500D01*
G54D18*
X67460Y177500D03*
X67460Y197500D03*
X219960Y202500D03*
X229960Y202500D03*
X219960Y192500D03*
X229960Y192500D03*
X219960Y182500D03*
X229960Y182500D03*
X219960Y172500D03*
X229960Y172500D03*
X158160Y117500D03*
X158160Y107500D03*
X158160Y97500D03*
X168160Y117500D03*
X168160Y107500D03*
X168160Y97500D03*
X167760Y137500D03*
X177760Y137500D03*
X187760Y137500D03*
X197760Y137500D03*
X207760Y137500D03*
X217760Y137500D03*
X227760Y137500D03*
X237760Y137500D03*
X247760Y137500D03*
X257760Y137500D03*
X267760Y137500D03*
X277760Y137500D03*
X287760Y137500D03*
X297760Y137500D03*
X307760Y137500D03*
X167760Y77500D03*
X177760Y77500D03*
X187760Y77500D03*
X197760Y77500D03*
X207760Y77500D03*
X217760Y77500D03*
X227760Y77500D03*
X237760Y77500D03*
X247760Y77500D03*
X257760Y77500D03*
X267760Y77500D03*
X277760Y77500D03*
X287760Y77500D03*
X297760Y77500D03*
X307760Y77500D03*
X199960Y30000D03*
X189960Y30000D03*
X179960Y30000D03*
X169960Y30000D03*
X227460Y30000D03*
X237460Y30000D03*
X247460Y30000D03*
X257460Y30000D03*
X147460Y207342D03*
X147460Y187657D03*
G54D20*
X49960Y145000D03*
X49960Y125000D03*
X49960Y105000D03*
X19960Y177500D03*
X19960Y197500D03*
G54D21*
X342460Y205000D03*
X339960Y20000D03*
X22460Y20000D03*
X94960Y155000D03*
G54D22*
X114960Y182500D03*
G54D23*
X114960Y192500D03*
X114960Y202500D03*
M02*
