%FSLAX35Y35*%
%MOIN*%
%IN2 = Copper bottom L1   ( x.Bot )*%
%ADD10C,0.00591*%
%ADD11C,0.00768*%
%ADD12C,0.01024*%
%ADD13C,0.01181*%
%ADD14C,0.04000*%
%ADD15C,0.05000*%
%ADD16C,0.07087*%
%ADD17C,0.07874*%
%ADD18C,0.09055*%
%ADD19C,0.19685*%
%ADD20R,0.08500X0.06500*%
%ADD21O,0.08500X0.06500*%
G54D14*
X29960Y74350D02*
X42460Y74350D01*
X59960Y74350D02*
X77460Y91850D01*
X96210Y91850D01*
X137460Y19350D02*
X52460Y19350D01*
X42460Y29350D01*
X42460Y39350D01*
X42460Y74350D02*
X59960Y74350D01*
X69960Y39350D02*
X42460Y39350D01*
X42460Y74350D01*
X69960Y111850D02*
X69960Y99350D01*
X64960Y94350D01*
X29960Y94350D01*
X137460Y39350D02*
X109960Y39350D01*
X134960Y139350D02*
X137460Y136850D01*
X137460Y121850D01*
X122460Y121850D02*
X122460Y136850D01*
X124960Y139350D01*
X82460Y121850D02*
X104960Y121850D01*
X108710Y118100D01*
X108710Y91850D01*
X108710Y86850D01*
X108710Y80600D02*
X117460Y71850D01*
X137460Y71850D01*
X177460Y86850D02*
X108710Y86850D01*
X108710Y80600D01*
X69960Y71850D02*
X94960Y71850D01*
X102460Y79350D01*
X102460Y91850D01*
G54D15*
X96210Y91850D03*
X102460Y91850D03*
X108710Y91850D03*
G54D16*
X69960Y39350D03*
X109960Y39350D03*
X122460Y121850D03*
X82460Y121850D03*
X134960Y139350D03*
X124960Y139350D03*
X69960Y111850D03*
X69960Y71850D03*
G54D17*
X137460Y71850D03*
X137460Y121850D03*
G54D18*
X177460Y36850D03*
X177460Y16850D03*
X177460Y106850D03*
X177460Y86850D03*
X29960Y114350D03*
X29960Y94350D03*
X29960Y74350D03*
G54D19*
X19960Y139350D03*
X174960Y139350D03*
X19960Y14350D03*
X174960Y61850D03*
G54D20*
X137460Y39350D03*
G54D21*
X137460Y29350D03*
X137460Y19350D03*
M02*
